<svg xmlns="http://www.w3.org/2000/svg" height="100" width="309">
  <defs/>
  <defs>
    <clipPath id="a" clipPathUnits="userSpaceOnUse">
      <path d="M0 100h309V0H0z"/>
    </clipPath>
  </defs>
  <g clip-path="url(#a)" transform="matrix(1 0 0 -1 0 100)">
    <path d="M259 1.574c-13.102 0-24.997 5.24-33.724 13.721 8.694 9 14.057 21.234 14.057 34.705 0 13.47-5.363 25.705-14.057 34.705 8.727 8.482 20.622 13.72 33.724 13.72 26.701 0 48.426-21.724 48.426-48.425 0-26.7-21.725-48.426-48.426-48.426M155.61 15.295c8.693 9 14.057 21.234 14.057 34.705 0 13.47-5.364 25.705-14.057 34.705 8.727 8.482 20.621 13.72 33.723 13.72s24.997-5.238 33.724-13.72C214.364 75.705 209 63.47 209 50c0-13.47 5.364-25.705 14.057-34.705-8.727-8.482-20.622-13.72-33.724-13.72-13.102 0-24.996 5.238-33.723 13.72m-69.667 0C94.636 24.295 100 36.53 100 50c0 13.47-5.364 25.705-14.057 34.705 8.727 8.482 20.622 13.72 33.724 13.72 13.102 0 24.997-5.238 33.723-13.72-8.693-9-14.057-21.235-14.057-34.705 0-13.47 5.364-25.705 14.057-34.705-8.726-8.482-20.621-13.72-33.723-13.72S94.67 6.812 85.943 15.294M1.575 50c0 26.701 21.723 48.425 48.425 48.425 13.102 0 24.997-5.238 33.723-13.72-8.692-9-14.056-21.235-14.056-34.705 0-13.47 5.364-25.705 14.056-34.705C74.997 6.813 63.102 1.575 50 1.575 23.298 1.574 1.575 23.298 1.575 50m83.258-33.589c-8.405 8.715-13.592 20.554-13.592 33.59 0 13.033 5.187 24.873 13.592 33.587C93.239 74.874 98.425 63.034 98.425 50c0-13.035-5.186-24.874-13.592-33.589m69.667 0c-8.406 8.715-13.592 20.554-13.592 33.59 0 13.033 5.186 24.873 13.592 33.587 8.406-8.714 13.592-20.554 13.592-33.588 0-13.035-5.186-24.874-13.592-33.589m69.667 0c-8.406 8.715-13.593 20.554-13.593 33.59 0 13.033 5.187 24.873 13.593 33.588 8.405-8.715 13.592-20.555 13.592-33.589 0-13.035-5.187-24.874-13.592-33.589M259 100.001c-13.534 0-25.822-5.415-34.833-14.18-9.012 8.765-21.299 14.18-34.834 14.18-13.534 0-25.821-5.415-34.833-14.18-9.011 8.765-21.299 14.18-34.833 14.18-13.535 0-25.822-5.415-34.834-14.18-9.011 8.765-21.298 14.18-34.833 14.18-27.57 0-50-22.43-50-50C0 22.428 22.43 0 50 0c13.535 0 25.822 5.413 34.833 14.177C93.845 5.414 106.132 0 119.667 0c13.534 0 25.822 5.414 34.833 14.178C163.512 5.414 175.799 0 189.333 0c13.535 0 25.822 5.414 34.834 14.178C233.178 5.414 245.466 0 259 0c27.57 0 50 22.43 50 50s-22.43 50-50 50"/>
  </g>
</svg>
