<svg xmlns="http://www.w3.org/2000/svg" height="100" width="299">
  <defs/>
  <defs>
    <clipPath id="a" clipPathUnits="userSpaceOnUse">
      <path d="M0 100h299V0H0z"/>
    </clipPath>
  </defs>
  <g clip-path="url(#a)" transform="matrix(1 0 0 -1 0 100)">
    <path d="M249 6.63c-10.906 0-20.878 4.056-28.508 10.728 7.576 8.766 12.175 20.173 12.175 32.642 0 12.469-4.599 23.877-12.175 32.643 7.63 6.672 17.602 10.727 28.508 10.727 23.914 0 43.37-19.455 43.37-43.37 0-23.914-19.456-43.37-43.37-43.37m-94.841 10.728c7.576 8.766 12.174 20.173 12.174 32.642 0 12.469-4.598 23.877-12.174 32.643 7.63 6.672 17.601 10.727 28.508 10.727 10.906 0 20.878-4.055 28.507-10.727C203.599 73.877 199 62.469 199 50c0-12.47 4.599-23.876 12.174-32.642-7.629-6.672-17.601-10.728-28.507-10.728-10.907 0-20.878 4.056-28.508 10.728m-66.333 0C95.402 26.124 100 37.53 100 50c0 12.469-4.598 23.877-12.174 32.643 7.629 6.672 17.601 10.727 28.507 10.727 10.907 0 20.878-4.055 28.508-10.727-7.576-8.766-12.174-20.174-12.174-32.643 0-12.47 4.598-23.876 12.174-32.642-7.63-6.672-17.601-10.728-28.508-10.728-10.906 0-20.878 4.056-28.507 10.728M6.63 50c0 23.915 19.456 43.37 43.37 43.37 10.907 0 20.878-4.055 28.507-10.727C70.932 73.877 66.333 62.469 66.333 50c0-12.47 4.599-23.876 12.174-32.642C70.878 10.686 60.907 6.63 50 6.63 26.086 6.63 6.63 26.086 6.63 50m76.537-27.903C76.806 29.645 72.963 39.38 72.963 50c0 10.62 3.843 20.355 10.204 27.903C89.527 70.355 93.37 60.62 93.37 50c0-10.62-3.843-20.355-10.203-27.903m66.333 0C143.14 29.645 139.296 39.38 139.296 50c0 10.62 3.844 20.355 10.204 27.903 6.36-7.548 10.204-17.283 10.204-27.903 0-10.62-3.844-20.355-10.204-27.903m66.333 0C209.473 29.645 205.63 39.38 205.63 50c0 10.62 3.843 20.355 10.203 27.903 6.36-7.548 10.204-17.283 10.204-27.903 0-10.62-3.844-20.355-10.204-27.903M249 100c-12.717 0-24.334-4.78-33.167-12.628C207 95.22 195.384 100 182.667 100c-12.717 0-24.334-4.78-33.167-12.628C140.667 95.22 129.05 100 116.333 100 103.616 100 92 95.22 83.167 87.372 74.333 95.22 62.717 100 50 100 22.43 100 0 77.57 0 50S22.43 0 50 0c12.717 0 24.333 4.78 33.167 12.628C92 4.78 103.616 0 116.333 0c12.717 0 24.334 4.78 33.167 12.628C158.333 4.78 169.95 0 182.667 0 195.384 0 207 4.78 215.833 12.628 224.666 4.78 236.283 0 249 0c27.57 0 50 22.43 50 50s-22.43 50-50 50" fill="#fff"/>
  </g>
</svg>
